<?xml version="1.0" encoding="utf-8"?>
<!-- Generator: Adobe Illustrator 24.1.2, SVG Export Plug-In . SVG Version: 6.00 Build 0)  -->
<svg version="1.1"
	 id="svg2" xmlns:cc="http://creativecommons.org/ns#" xmlns:dc="http://purl.org/dc/elements/1.1/" xmlns:rdf="http://www.w3.org/1999/02/22-rdf-syntax-ns#" xmlns:svg="http://www.w3.org/2000/svg"
	 xmlns="http://www.w3.org/2000/svg" xmlns:xlink="http://www.w3.org/1999/xlink" x="0px" y="0px" viewBox="0 0 500.8 500.8"
	 style="enable-background:new 0 0 500.8 500.8;" xml:space="preserve">
<style type="text/css">
	.st0{fill:#FEFE33;}
	.st1{fill:#FB9902;}
	.st2{fill:#FABC02;}
	.st3{fill:#FE2712;}
	.st4{fill:#FD5308;}
	.st5{fill:#8601AF;}
	.st6{fill:#A7194B;}
	.st7{fill:#0247FE;}
	.st8{fill:#3D01A4;}
	.st9{fill:#66B032;}
	.st10{fill:#0391CE;}
	.st11{fill:#D0EA2B;}
	.st12{fill:#FFFFFF;}
</style>
<path id="path16" class="st0" d="M491.9,185.7c11.9,44.4,11.9,85,0,129.4l-24.2,14.6l-217.3-79.3l220.2-77.9L491.9,185.7z"/>
<path id="path20" class="st1" d="M315.1,8.9c44.4,11.9,79.5,32.2,112.1,64.7l0.6,24.9L250.4,250.4l43.1-229.5L315.1,8.9z"/>
<path id="path18" class="st2" d="M427.2,73.6c32.5,32.5,52.8,67.6,64.7,112.1l-241.5,64.7L427.2,73.6z"/>
<path id="path28" class="st3" d="M73.6,73.6c32.5-32.5,67.6-52.8,112.1-64.7l25.9,16l38.8,225.5L73.2,100.5L73.6,73.6z"/>
<path id="path22" class="st4" d="M185.7,8.9c44.4-11.9,85-11.9,129.4,0l-64.7,241.5L185.7,8.9z"/>
<path id="path26" class="st5" d="M8.9,315.1c-11.9-44.4-11.9-85,0-129.4L36.7,167l213.7,83.4L36.3,329.8L8.9,315.1z"/>
<path id="path30" class="st6" d="M8.9,185.7c11.9-44.4,32.2-79.5,64.7-112.1l176.8,176.8L8.9,185.7z"/>
<path id="path8" class="st7" d="M185.7,491.9c-44.4-11.9-79.5-32.2-112.1-64.7l2.1-28.2l174.7-148.6l-39,229.7L185.7,491.9z"/>
<path id="path24" class="st8" d="M73.6,427.2c-32.5-32.5-52.8-67.6-64.7-112.1l241.5-64.7L73.6,427.2z"/>
<path id="path12" class="st9" d="M427.2,427.2c-32.5,32.5-67.6,52.8-112.1,64.7l-24.3-15.1l-40.5-226.4l176,151.2L427.2,427.2z"/>
<path id="path10" class="st10" d="M315.1,491.9c-44.4,11.9-85,11.9-129.4,0l64.7-241.5L315.1,491.9z"/>
<path id="path14" class="st11" d="M491.9,315.1c-11.9,44.4-32.2,79.5-64.7,112.1L250.4,250.4L491.9,315.1z"/>
<circle id="circle32" class="st12" cx="250.4" cy="250.4" r="153.8"/>
</svg>
