<?xml version="1.0" encoding="utf-8"?>
<!-- Generator: Adobe Illustrator 24.1.2, SVG Export Plug-In . SVG Version: 6.00 Build 0)  -->
<svg version="1.1" id="Layer_1" xmlns="http://www.w3.org/2000/svg" xmlns:xlink="http://www.w3.org/1999/xlink" x="0px" y="0px"
	 viewBox="0 0 939.2 177.1" style="enable-background:new 0 0 939.2 177.1;" xml:space="preserve">
<style type="text/css">
	.st0{fill:#E8E8E8;}
	.st1{fill:#FFFFFF;}
	.st2{fill:#0071BC;}
	.st3{fill:#29ABE2;}
</style>
<g>
	<g>
		<path class="st0" d="M69.9,89.3c-8,5.7-17.7,8.1-28.6,8.1c-11,0-23.3-3-35.3-12.6l15.7-23.3c8.1,7.4,20.2,10.3,24.3,10.3
			c4.1,0,7.1-1.2,7.3-4c0.2-2.7-3.1-3.8-6.4-4.9c-3.3-1-10.7-3.4-13.3-4.4c-2.6-1.1-8-2.9-12.4-7s-7.8-9.9-6.9-20.1
			c0.9-10.3,6.9-18.2,13-22.9c6.2-4.8,15.9-8.2,28.5-8.2c12.6,0,25.1,4.5,32.7,11.4L74.8,33.5c-6.6-6.3-16.7-9-21.7-9
			c-4.9,0-7.7,1-8,3.8c-0.2,2.7,4.1,3.7,6.2,4.4c2.1,0.7,7.7,2.3,10.9,3.4c3.2,1.1,10.6,3.8,15,7.9c4.4,4.1,8,10.5,7.1,20.5
			C83.5,74.5,77.9,83.4,69.9,89.3z"/>
		<path class="st0" d="M179,55.3c-1.3,15.1-5.5,24-13,30.8c-7.4,6.8-18.8,11.1-33.8,11.1s-25.6-4.2-31.9-11.1s-8.9-15.7-7.6-30.8
			l4.7-54.1h31.1l-4.9,55.4c-0.5,5.6,0.4,8.2,2.2,10.3c1.9,2.1,4.5,3.4,8.6,3.4c4.1,0,7-1.4,9.2-3.4c2.2-2.1,3.4-4.8,3.9-10.3
			l4.9-55.4h31.2L179,55.3z"/>
		<path class="st0" d="M259,58.7c-7.3,5.5-16.7,7.5-26.9,7.5h-10.1l-2.6,29.4h-30.9l8.3-94.5h41.1c10.3,0,19.3,2.1,25.6,7.5
			c6.4,5.5,9.5,13.7,8.5,25.1C270.9,45,266.3,53.2,259,58.7z M237.9,26.3c-1.9-1.5-4-1.8-7.4-1.8h-5.1L223.8,43h5.1
			c3.4,0,5.5-0.3,7.7-1.6c2.3-1.5,3.8-3.8,4.1-7.5C241,30,239.8,27.7,237.9,26.3z"/>
		<path class="st0" d="M342.4,95.7H274l8.3-94.5h67.1l-2.1,24.4h-36.3L310,35.9h34.2l-2.1,24.2h-34.2l-1,11h37.6L342.4,95.7z"/>
		<path class="st0" d="M438.9,95.7h-35.6L391,64.2h-4l-2.8,31.5h-30.9l8.3-94.5h41.1c11.6,0,20.4,2.1,26.8,6.8s10.5,13,9.6,23.3
			c-1.7,19.2-13.9,26-18.2,28.5L438.9,95.7z M404.9,26.3c-1.3-1.1-3.3-1.8-6.7-1.8h-7.8L389,40.9h7.8c3.4,0,5.7-0.7,7-1.6
			c1.6-1.1,3.6-2.5,4-6.6C408.1,28.6,406.2,27.2,404.9,26.3z"/>
		<path class="st1" d="M571.6,1.2l-35.5,94.6h-13l-16-76.4l-29.3,76.4h-13l-19-94.6h14l13.9,74.5L502,1.2h13.6l15.2,74.5l26.9-74.5
			H571.6z"/>
		<path class="st1" d="M651.3,95.7H638l3.9-44.1h-50.2l-3.9,44.1h-13.3l8.3-94.5H596l-3.4,39h50.2l3.4-39h13.3L651.3,95.7z"/>
		<path class="st1" d="M728.6,95.7h-56.4l8.3-94.5h55.3l-1,11.1h-42l-2.5,28.2H730l-1,11.1h-39.7l-2.9,32.9h43.1L728.6,95.7z"/>
		<path class="st1" d="M801.3,95.7h-56.4l8.3-94.5h55.3l-1,11.1h-42L763,40.5h39.7l-1,11.1H762l-2.9,32.9h43.1L801.3,95.7z"/>
		<path class="st1" d="M864.1,95.7h-46.5l8.3-94.5h13.3l-7.3,83.1h33.3L864.1,95.7z"/>
		<path class="st1" d="M924.3,89.9c-6.3,4.8-14.3,7.4-23.8,7.4c-16.6,0-25.1-10.7-29.1-15.9l8.6-8.9c4.2,6.4,12.5,13.6,22.8,13.6
			s19-5.9,19.9-15.9c0.9-9.9-9.3-13.7-14-15.6c-4.8-1.9-11.1-4.5-14.5-6.3c-2-1-5.8-3-8.9-6.7c-3.1-3.6-5.4-8.8-4.7-16.4
			s4.8-14,10.2-18.2c5.6-4.4,13.2-7,22.4-7c15.5,0,23.7,9.4,26,12.2l-7.8,9c-4.2-4.9-10.6-10.1-19.9-10.1c-9.3,0-16.8,4.4-17.6,13.1
			s5.4,12,10.9,14.4l16.8,7.3c1.7,0.8,7.2,4,10,7.7c2.7,3.7,5,8.8,4.4,15.9C935.2,77.6,930.9,84.9,924.3,89.9z"/>
	</g>
	<g>
		<path class="st0" d="M26.9,125.9c11.2,0,19,5.6,21.8,15.2h-5.9c-2.2-6.7-7.7-10.8-16.3-10.8c-11,0-20.1,8.1-21.2,21.2
			c-1.1,13.1,6.5,21.2,17.5,21.2c8.5,0,14.8-4.2,18.2-10.7h5.9c-4.4,9.5-13.2,15.1-24.4,15.1c-13.9,0-23.6-10.5-22.3-25.5
			C1.4,136.4,13,125.9,26.9,125.9z"/>
		<path class="st0" d="M85.6,164.7H62.8l-5.4,11.9h-5.3l22.6-49.5h5.7l13.9,49.5H89L85.6,164.7z M77,133.4l-12.3,27.1h19.8L77,133.4
			z"/>
		<path class="st0" d="M121.7,126.4c11.6,0,16.5,6.3,15.8,14.6c-0.6,6.9-5,12.7-13.6,14.3l11,21.3h-6l-10.6-20.9h-9.3l-1.8,20.9h-5
			l4.4-50.1H121.7z M121.4,130.7h-10l-1.8,20.9h10.1c8.2,0,12.2-4.4,12.8-10.5C132.9,134.7,129.8,130.7,121.4,130.7z"/>
		<path class="st0" d="M183.5,126.4c11.6,0,16.5,6.3,15.8,14.6c-0.6,6.9-5,12.7-13.6,14.3l11,21.3h-6l-10.6-20.9h-9.3l-1.8,20.9h-5
			l4.4-50.1H183.5z M183.1,130.7h-10l-1.8,20.9h10.1c8.2,0,12.2-4.4,12.8-10.5C194.7,134.7,191.6,130.7,183.1,130.7z"/>
		<path class="st0" d="M236.4,130.5h-21.2l-1.6,18.7h19l-0.4,4.2h-19l-1.7,19h21.2l-0.4,4.2h-26.2l4.4-50.2h26.2L236.4,130.5z"/>
		<path class="st0" d="M284.4,126.4l-4.4,50.1h-5L251,134.4l-3.7,42.2h-5l4.4-50.1h5l24.1,42.1l3.7-42.1H284.4z"/>
		<path class="st0" d="M292.3,126.4h32.9l-0.4,4.2h-13.9l-4,46h-5l4-46h-14L292.3,126.4z"/>
		<path class="st0" d="M358.9,164.7H336l-5.4,11.9h-5.3l22.6-49.5h5.7l13.9,49.5h-5.3L358.9,164.7z M350.2,133.4l-12.3,27.1h19.8
			L350.2,133.4z"/>
		<path class="st0" d="M384.9,126.4l-4,46.1h18l-0.4,4.1h-23l4.4-50.1H384.9z"/>
		<path class="st0" d="M420.9,177.1c-10,0-16.1-5.7-15.8-13.4h5.3c0.1,4.2,2.7,9.2,10.8,9.2c7,0,11.4-4.1,11.9-9.3
			c1.3-14.8-27.1-5.5-25.4-24.3c0.7-7.7,7.6-13.4,17.2-13.4c9.5,0,14.8,5.3,15.1,12.2h-5.5c-0.3-3.5-3.3-7.8-10.2-7.9
			c-5.9-0.1-11,3.2-11.5,9c-1.3,14.5,27.1,5.6,25.4,24.2C437.6,170.2,431.5,177.1,420.9,177.1z"/>
	</g>
</g>
</svg>
